<svg xmlns="http://www.w3.org/2000/svg" viewBox="0 0 238 39" fill="none" aria-label="Company Logo" class="tw:h-[18px] tw:w-[108px] tw:text-primary tw:lg:mr-8 tw:lg:h-[30px] tw:lg:w-[177px]"><path d="M59.4581 0C46.9049 0 39.9808 8.28971 39.9808 19.5C39.9808 30.7103 46.9049 39 59.4581 39C72.0113 39 78.9354 30.6573 78.9354 19.5C78.9354 8.34272 71.9558 0 59.4581 0ZM59.4581 34.8627C51.2391 34.8627 49.1919 26.9592 49.1919 19.5025C49.1919 12.0458 51.2391 4.20544 59.4581 4.20544C67.6771 4.20544 69.7243 11.9928 69.7243 19.5025C69.7243 27.0122 67.6771 34.8627 59.4581 34.8627Z" fill="rgb(255, 68, 12)"></path><path d="M103.648 0C91.0948 0 84.1707 8.28971 84.1707 19.5C84.1707 30.7103 91.0948 39 103.648 39C116.201 39 123.125 30.6573 123.125 19.5C123.125 8.34272 116.146 0 103.648 0ZM103.648 34.8627C95.429 34.8627 93.3818 26.9592 93.3818 19.5025C93.3818 12.0458 95.429 4.20544 103.648 4.20544C111.867 4.20544 113.914 11.9928 113.914 19.5025C113.914 27.0122 111.867 34.8627 103.648 34.8627Z" fill="rgb(255, 68, 12)"></path><path d="M26.1453 18.1773C29.7197 16.7864 32.1607 13.8078 32.1607 10.0971C32.1607 4.58912 28.1521 0.641159 17.5527 0.641159H2.55346C1.55385 0.641159 0.743561 1.45145 0.743561 2.45107V36.554C0.743561 37.5536 1.55385 38.3639 2.55346 38.3639H18.0222C29.861 38.3639 34.6117 33.6132 34.6117 27.5297C34.6117 22.1757 31.8249 18.9699 26.1478 18.1773H26.1453ZM9.48259 5.81339C9.48259 5.31359 9.88647 4.9097 10.3863 4.9097H15.4727C20.4278 4.9097 22.9319 6.52019 22.9319 10.6827C22.9319 14.8452 20.4278 16.9959 15.4727 16.9959H9.48007V5.81339H9.48259ZM18.0197 34.0953H10.3888C9.889 34.0953 9.48512 33.6889 9.48512 33.1916V21.3276H18.0222C22.841 21.3276 25.4562 23.3142 25.4562 27.6534C25.4562 31.9926 22.841 34.0979 18.0222 34.0979L18.0197 34.0953Z" fill="rgb(255, 68, 12)"></path><path d="M196.617 0.641159H171.728C170.728 0.641159 169.918 1.45145 169.918 2.45107V36.554C169.918 37.5536 170.728 38.3639 171.728 38.3639H196.617C197.117 38.3639 197.521 37.9575 197.521 37.4602V35.0015C197.521 34.5017 197.117 34.0979 196.617 34.0979H179.565C179.066 34.0979 178.662 33.6914 178.662 33.1942V21.3301H193.825C194.325 21.3301 194.729 20.9262 194.729 20.4264V17.9047C194.729 17.4048 194.325 17.001 193.825 17.001H178.662V5.81844C178.662 5.31864 179.068 4.91475 179.565 4.91475H196.617C197.117 4.91475 197.521 4.50834 197.521 4.01106V1.55242C197.521 1.05262 197.117 0.648735 196.617 0.648735V0.641159Z" fill="rgb(255, 68, 12)"></path><path d="M146.351 16.9959L161.434 2.18602C162.002 1.61553 161.598 0.643686 160.793 0.643686H156.688C155.948 0.643686 155.244 0.944075 154.732 1.4767L138.69 17.8415V2.45107C138.69 1.45145 137.88 0.641159 136.88 0.641159H131.756C130.756 0.641159 129.946 1.45145 129.946 2.45107V36.554C129.946 37.5536 130.756 38.3639 131.756 38.3639H136.88C137.88 38.3639 138.69 37.5536 138.69 36.554V20.0074L153.515 37.4223C154.03 38.0206 154.782 38.3639 155.57 38.3639H162.077C163.249 38.3639 163.87 36.9831 163.092 36.1072L146.351 16.9959Z" fill="rgb(255, 68, 12)"></path><path d="M236.864 36.3041L227.797 21.3124C233.09 20.4087 236.841 16.4002 236.841 11.4501C236.841 4.08427 229.965 0.641159 220.749 0.641159H206.628C205.629 0.641159 204.818 1.45145 204.818 2.45107V36.554C204.818 37.5536 205.629 38.3639 206.628 38.3639H211.753C212.752 38.3639 213.562 37.5536 213.562 36.554V22.3196H219.068L227.956 37.4703C228.281 38.0231 228.875 38.3639 229.516 38.3639H235.703C236.76 38.3639 237.412 37.2103 236.864 36.3041ZM219.305 18.046H213.56V5.73262C213.603 5.2732 213.984 4.9097 214.456 4.9097H219.305C224.601 4.9097 227.628 6.59592 227.628 11.2709C227.628 15.9458 224.601 18.046 219.305 18.046Z" fill="rgb(255, 68, 12)"></path></svg>